<?xml version="1.0" standalone="no"?><!-- Generator: Gravit.io --><svg xmlns="http://www.w3.org/2000/svg" xmlns:xlink="http://www.w3.org/1999/xlink" style="isolation:isolate" viewBox="0 0 50 50" width="50" height="50"><g id="null"><g id="null"><path d=" M 7.655 50 L 15.111 41.053 L 11.989 39.898 L 3.571 50 L 7.655 50 Z " fill="rgb(96,125,139)"/><path d=" M 42.345 50 L 34.889 41.053 L 38.011 39.898 L 46.429 50 L 42.345 50 Z " fill="rgb(96,125,139)"/></g><path d=" M 50 41.665 L 50 10.119 C 50 5.845 44.804 4.762 38.393 4.762 L 11.607 4.762 C 5.196 4.762 0 5.845 0 10.119 L 0 41.665 L 50 41.665 Z " fill="rgb(76,175,80)"/><path d=" M 25 0 C 21.061 0 17.857 2.136 17.857 4.762 C 17.857 7.388 21.061 9.523 25 9.523 C 28.939 9.523 32.143 7.388 32.143 4.762 C 32.143 2.136 28.939 0 25 0 Z " fill="rgb(56,142,60)"/><path d=" M 21.429 4.762 C 21.429 3.448 23.029 2.381 25 2.381 C 26.971 2.381 28.571 3.448 28.571 4.762 C 28.571 6.076 26.971 7.143 25 7.143 C 23.029 7.143 21.429 6.076 21.429 4.762 Z " fill="rgb(255,235,59)"/><g id="null"><path d=" M 50 41.665 C 50 41.665 50.002 44.046 46.429 44.046 L 3.571 44.046 C 0 44.046 0 41.665 0 41.665 L 0 33.332 L 50 33.332 L 50 41.665 Z " fill="rgb(55,71,79)"/><path d=" M 7.143 32.141 C 8.419 32.142 9.598 32.596 10.236 33.333 C 10.874 34.069 10.874 34.977 10.235 35.714 C 9.597 36.451 8.417 36.904 7.141 36.904 C 5.168 36.904 3.569 35.837 3.57 34.522 C 3.57 33.207 5.17 32.141 7.143 32.141 M 7.143 29.76 C 3.204 29.76 0 31.896 0 34.522 C 0 37.148 3.204 39.284 7.143 39.284 C 11.082 39.284 14.286 37.148 14.286 34.522 C 14.286 31.896 11.082 29.76 7.143 29.76 Z  M 42.857 32.141 C 44.133 32.142 45.313 32.596 45.95 33.333 C 46.588 34.069 46.588 34.977 45.95 35.714 C 45.311 36.451 44.132 36.904 42.855 36.904 C 40.882 36.904 39.283 35.837 39.284 34.522 C 39.284 33.207 40.884 32.141 42.857 32.141 M 42.857 29.76 C 38.918 29.76 35.714 31.896 35.714 34.522 C 35.714 37.148 38.918 39.284 42.857 39.284 C 46.796 39.284 50 37.148 50 34.522 C 50 31.896 46.796 29.76 42.857 29.76 Z " fill="rgb(55,71,79)"/></g><path d=" M 43.75 10.714 L 26.786 10.714 L 26.786 21.428 L 43.75 21.428 C 45.229 21.428 46.429 20.628 46.429 19.642 L 46.429 12.499 C 46.429 11.513 45.229 10.714 43.75 10.714 Z  M 23.214 10.714 L 6.25 10.714 C 4.771 10.714 3.571 11.513 3.571 12.499 L 3.571 19.642 C 3.571 20.628 4.771 21.428 6.25 21.428 L 23.214 21.428 L 23.214 10.714 Z " fill="rgb(11,66,13)"/><g id="null"><path d=" M 3.571 34.522 C 3.571 33.208 5.172 32.141 7.143 32.141 C 9.114 32.141 10.714 33.208 10.714 34.522 C 10.714 35.836 9.114 36.903 7.143 36.903 C 5.172 36.903 3.571 35.836 3.571 34.522 Z " fill="rgb(197,202,233)"/><path d=" M 39.286 34.522 C 39.286 33.208 40.886 32.141 42.857 32.141 C 44.828 32.141 46.429 33.208 46.429 34.522 C 46.429 35.836 44.828 36.903 42.857 36.903 C 40.886 36.903 39.286 35.836 39.286 34.522 Z " fill="rgb(197,202,233)"/></g></g></svg>